<svg width="31" height="31" viewBox="0 0 31 31" fill="none" xmlns="http://www.w3.org/2000/svg">
<path d="M15.4237 0C11.2381 0 10.7118 0.0192797 9.06722 0.0925424C7.42267 0.169661 6.30252 0.428008 5.32119 0.809746C4.29183 1.19692 3.35946 1.80424 2.58926 2.58926C1.80472 3.35986 1.19747 4.29212 0.809746 5.32119C0.428008 6.30059 0.167733 7.42267 0.0925424 9.06144C0.0192797 10.7099 0 11.2343 0 15.4257C0 19.6132 0.0192797 20.1376 0.0925424 21.7822C0.169661 23.4248 0.428008 24.5449 0.809746 25.5263C1.20498 26.5404 1.73131 27.4003 2.58926 28.2582C3.44528 29.1161 4.30515 29.6444 5.31926 30.0377C6.30252 30.4194 7.42074 30.6797 9.06337 30.7549C10.7099 30.8282 11.2343 30.8475 15.4237 30.8475C19.6132 30.8475 20.1357 30.8282 21.7822 30.7549C23.4229 30.6778 24.5469 30.4194 25.5282 30.0377C26.5569 29.6503 27.4886 29.043 28.2582 28.2582C29.1161 27.4003 29.6425 26.5404 30.0377 25.5263C30.4175 24.5449 30.6778 23.4248 30.7549 21.7822C30.8282 20.1376 30.8475 19.6132 30.8475 15.4237C30.8475 11.2343 30.8282 10.7099 30.7549 9.06337C30.6778 7.42267 30.4175 6.30059 30.0377 5.32119C29.65 4.29209 29.0428 3.35982 28.2582 2.58926C27.4882 1.80395 26.5558 1.19658 25.5263 0.809746C24.543 0.428008 23.4209 0.167733 21.7802 0.0925424C20.1338 0.0192797 19.6113 0 15.4199 0H15.4257H15.4237ZM14.0414 2.78013H15.4257C19.5438 2.78013 20.0316 2.79362 21.6568 2.86881C23.1607 2.93629 23.9781 3.18886 24.5218 3.399C25.2409 3.67856 25.7557 4.01403 26.2955 4.55386C26.8354 5.09369 27.1689 5.60653 27.4485 6.32758C27.6605 6.86934 27.9112 7.6868 27.9786 9.19061C28.0538 10.8159 28.0693 11.3037 28.0693 15.4199C28.0693 19.5361 28.0538 20.0258 27.9786 21.6511C27.9112 23.1549 27.6586 23.9704 27.4485 24.5141C27.2012 25.1838 26.8065 25.7893 26.2936 26.2859C25.7538 26.8257 25.2409 27.1593 24.5199 27.4388C23.98 27.6509 23.1626 27.9015 21.6568 27.9709C20.0316 28.0442 19.5438 28.0615 15.4257 28.0615C11.3075 28.0615 10.8178 28.0442 9.19254 27.9709C7.68873 27.9015 6.8732 27.6509 6.32951 27.4388C5.65954 27.1919 5.05344 26.7979 4.55578 26.2859C4.04246 25.7885 3.64718 25.1824 3.399 24.5122C3.18886 23.9704 2.93629 23.1529 2.86881 21.6491C2.79555 20.0239 2.78013 19.5361 2.78013 15.416C2.78013 11.2979 2.79555 10.812 2.86881 9.18676C2.93822 7.68294 3.18886 6.86549 3.40093 6.3218C3.68049 5.60267 4.01595 5.0879 4.55578 4.54807C5.09561 4.00824 5.60845 3.6747 6.32951 3.39515C6.8732 3.18307 7.68873 2.93244 9.19254 2.86303C10.6154 2.79748 11.1668 2.7782 14.0414 2.77627V2.78013ZM23.6581 5.34047C23.415 5.34047 23.1743 5.38834 22.9498 5.48135C22.7252 5.57437 22.5212 5.7107 22.3493 5.88257C22.1775 6.05443 22.0411 6.25847 21.9481 6.48303C21.8551 6.70758 21.8072 6.94826 21.8072 7.19131C21.8072 7.43437 21.8551 7.67505 21.9481 7.8996C22.0411 8.12416 22.1775 8.32819 22.3493 8.50006C22.5212 8.67193 22.7252 8.80826 22.9498 8.90127C23.1743 8.99429 23.415 9.04216 23.6581 9.04216C24.1489 9.04216 24.6197 8.84716 24.9668 8.50006C25.3139 8.15296 25.5089 7.68219 25.5089 7.19131C25.5089 6.70044 25.3139 6.22967 24.9668 5.88257C24.6197 5.53547 24.1489 5.34047 23.6581 5.34047ZM15.4257 7.50364C14.3751 7.48725 13.3317 7.68003 12.3563 8.07074C11.3809 8.46145 10.493 9.0423 9.74423 9.77946C8.99548 10.5166 8.40085 11.3954 7.99497 12.3645C7.58909 13.3337 7.38006 14.374 7.38006 15.4247C7.38006 16.4754 7.58909 17.5157 7.99497 18.4848C8.40085 19.454 8.99548 20.3328 9.74423 21.0699C10.493 21.8071 11.3809 22.3879 12.3563 22.7786C13.3317 23.1694 14.3751 23.3621 15.4257 23.3457C17.505 23.3133 19.4883 22.4645 20.9473 20.9825C22.4063 19.5006 23.2241 17.5043 23.2241 15.4247C23.2241 13.345 22.4063 11.3488 20.9473 9.86685C19.4883 8.38489 17.505 7.53609 15.4257 7.50364ZM15.4257 10.2818C16.7894 10.2818 18.0972 10.8236 19.0615 11.7879C20.0258 12.7522 20.5675 14.06 20.5675 15.4237C20.5675 16.7874 20.0258 18.0953 19.0615 19.0596C18.0972 20.0239 16.7894 20.5656 15.4257 20.5656C14.0619 20.5656 12.7541 20.0239 11.7898 19.0596C10.8255 18.0953 10.2838 16.7874 10.2838 15.4237C10.2838 14.06 10.8255 12.7522 11.7898 11.7879C12.7541 10.8236 14.0619 10.2818 15.4257 10.2818Z" fill="#183883"/>
</svg>
