<svg width="32" height="31" viewBox="0 0 32 31" fill="none" xmlns="http://www.w3.org/2000/svg">
<path d="M27.9961 0C28.9052 0 29.777 0.36111 30.4197 1.00389C31.0625 1.64667 31.4236 2.51847 31.4236 3.4275V27.42C31.4236 28.329 31.0625 29.2008 30.4197 29.8436C29.777 30.4863 28.9052 30.8475 27.9961 30.8475H4.00367C3.09464 30.8475 2.22284 30.4863 1.58006 29.8436C0.937282 29.2008 0.576172 28.329 0.576172 27.42V3.4275C0.576172 2.51847 0.937282 1.64667 1.58006 1.00389C2.22284 0.36111 3.09464 0 4.00367 0H27.9961ZM27.1393 26.5631V17.4802C27.1393 15.9985 26.5506 14.5775 25.5029 13.5297C24.4552 12.482 23.0342 11.8934 21.5524 11.8934C20.0958 11.8934 18.3991 12.7846 17.5765 14.1213V12.219H12.7952V26.5631H17.5765V18.1143C17.5765 16.7947 18.6391 15.7151 19.9587 15.7151C20.595 15.7151 21.2052 15.9678 21.6552 16.4178C22.1051 16.8677 22.3579 17.478 22.3579 18.1143V26.5631H27.1393ZM7.22551 9.52844C7.9891 9.52844 8.72141 9.22511 9.26134 8.68517C9.80128 8.14523 10.1046 7.41292 10.1046 6.64934C10.1046 5.05556 8.8193 3.75311 7.22551 3.75311C6.45738 3.75311 5.72072 4.05825 5.17757 4.60139C4.63442 5.14454 4.32928 5.88121 4.32928 6.64934C4.32928 8.24313 5.63173 9.52844 7.22551 9.52844ZM9.60762 26.5631V12.219H4.86054V26.5631H9.60762Z" fill="#183883"/>
</svg>
